# xmcd CD database file
#
# Track frame offsets:
#	150
#	12518
#	24433
#	42578
#	68735
#	84578
#	101088
#	117940
#	134050
#	147090
#	162905
#	180823
#
# Disc length: 2677 seconds
#
# Revision: 1
# Processed by: cddbd v1.4PL0 Copyright (c) Steve Scherf et al.
# Submitted via: CDex 1.40Release
#
DISCID=9f0a730c
DTITLE=Electric Blues Duo - Make Mine A Double
DYEAR=1989
DGENRE=Blues
TTITLE0=Last Fair Deal
TTITLE1=Out On The Highway
TTITLE2=White Lady
TTITLE3=Make Mine A Double - Going Down Slow
TTITLE4=Texas
TTITLE5=Best Thing
TTITLE6=You Gonna Suffer
TTITLE7=B. and O.
TTITLE8=Roberta
TTITLE9=Travellin' Riverside Blues
TTITLE10=No Money Down
TTITLE11=All In Love Is Fair?
EXTD=YEAR: 1989 ID3G: 0
EXTT0=
EXTT1=
EXTT2=
EXTT3=
EXTT4=
EXTT5=
EXTT6=
EXTT7=
EXTT8=
EXTT9=
EXTT10=
EXTT11=
PLAYORDER=
